<?xml version="1.0" encoding="utf-8"?>
<!-- Generator: Adobe Illustrator 24.1.1, SVG Export Plug-In . SVG Version: 6.00 Build 0)  -->
<svg version="1.1" id="Layer_1" xmlns="http://www.w3.org/2000/svg" xmlns:xlink="http://www.w3.org/1999/xlink" x="0px" y="0px"
	 viewBox="0 0 360 360" style="enable-background:new 0 0 360 360;" xml:space="preserve">
<style type="text/css">
	.st0{fill:#5E3819;}
</style>
<g>
	<path class="st0" d="M134.5,335.6c0.4,1.9,1.5,4.4,1.2,6.7c-0.4,3.6-2.5,6.8-6.3,7.7c-3.8,0.9-6-1.7-7.2-4.9
		c-1.6-4.3-0.9-10.9-9.2-5.8c-2.4,1.5-4.6-3-5.1-5.8c-1.3-7.1-4.7-10-12.1-8c-4.1,1.1-8.4,0.9-9.1-5.3c-0.4-3.3-3-5.5-5.8-7.2
		c-27.6-17.3-48.4-40.9-61.4-70.6C7.5,214.8,3.4,186.3,7.3,156c8-61.5,43.3-103.3,94.8-132.1c35.4-19.8,74.1-22.4,113.4-8.8
		c17.8,6.2,33.6,15.6,49.1,25.8c2.3,1.5,4.3,3.9,5.9,6.2c5.4,7.6,9.6,13.6,22,11.8c11.7-1.7,19.7,9.7,25.5,19.3
		c11,18.1,16.4,36.6,14.5,59.1c-1.7,20.6-6.8,40.4-9.7,60.6c-5.1,35.8-23.9,66.9-49.5,92c-28.2,27.6-62,46-103.3,45.5
		C158.3,335.5,146.6,335.6,134.5,335.6z M162.7,35c-15.7,0-31.2,1.8-45.9,8C95.2,52,77.9,67,60.2,81.9
		c-11.4,9.6-18.6,20.8-23.1,34.4c-2,6.1-3.8,12.3-6.2,18.2c-8.2,20.4-9.3,41.7-3.3,62.2c9.5,32.6,17.4,67.4,58.9,76.4
		c6,1.3,14.1,8,11.5,16.1c-2.3,6.9,1.4,6.9,5,8.2c4.1,1.5,8.5,4.1,10.4-3.3c1.4-5.6,4.7-9.3,11.3-10c3.6-0.4,7.1-2.9,10.2-5
		c2.9-2,5.5-3.6,8.6-1c2.8,2.4,3.2,5.7,1.6,8.8c-2.7,5.1-0.6,7.7,3.3,11.2c12,10.7,26.6,11.7,41.2,12.1c25.6,0.6,46.3-15,69.4-22.6
		c0.8-0.3,1.6-1.2,1.9-2c4.6-11.9,17.4-16.5,23.4-26.7c2-3.5,5.8,0.9,6.5-3c2.1-12.2,7.4-23.4,11.7-34.7
		c7.6-19.9,15.6-38.5,1.9-58.9c-8.5-12.6-12-27.7-20.8-40.4c-7.2-10.5-17.6-18.2-23-30.4c-5.9-13.3-14.2-25.6-21.2-38.5
		c-1-1.9-2.2-2.9-4.1-3.7C212.1,40.1,188.7,31.3,162.7,35z"/>
	<path class="st0" d="M154.9,278.5c-0.3-4.6,1.6-10.1,10.5-9.6c5.1,0.3,8.3,3.3,8.5,8.5c0.3,5.9-8.1,13.6-14.2,13.2
		C153.1,290.1,155.1,285.1,154.9,278.5z"/>
</g>
</svg>
