<?xml version="1.0" encoding="utf-8"?>
<!-- Generator: Adobe Illustrator 24.1.1, SVG Export Plug-In . SVG Version: 6.00 Build 0)  -->
<svg version="1.1" id="Layer_1" xmlns="http://www.w3.org/2000/svg" xmlns:xlink="http://www.w3.org/1999/xlink" x="0px" y="0px"
	 viewBox="0 0 360 360" style="enable-background:new 0 0 360 360;" xml:space="preserve">
<style type="text/css">
	.st0{fill:#5E3819;}
</style>
<path class="st0" d="M246.3,30.5c-0.6,1.5-11.2-2.1-20.9-4.4c-31.6-7.7-58.6-3.6-67-2.2c-11.9,1.9-35.4,6-59.7,22.8
	c0,0-25.1,12.8-22.8,19.9c0.7,2.1,4.2,2.8,5.7,7.3c0.8,2.5,0.3,3.8,1.6,6c1.7,2.8,3.7,2.5,4.4,4.1c1.8,3.9-8.7,8.5-10.4,17.4
	c-1.6,8.1,4.5,17.4,8.5,17.4c2,0,3.9-2.3,4.1-2.1c0.3,0.3-3.8,3.3-3.2,5.5c0.7,2.3,6.2,2.2,6.3,3.6c0.1,1.5-5.6,2.2-5.8,4.4
	c-0.2,1.9,3.7,3.6,3.3,4.3c-0.4,0.7-4.6-1.6-6.2-0.2c-2.2,1.9,2.3,9.5,0.8,10.4c-1.4,0.9-5.7-5.2-8.7-4c-1.5,0.6-1.1,2.6-3.3,4.4
	c-2.3,1.9-4.3,1-5.1,2.2c-1.3,2.1,4.5,5.6,6.3,10.9c3.1,8.7-4.6,21.9-13.6,28c-8.6,5.8-14.9,8.9-14.9,8.9c-2.4,1.2-4.6,2.1-6,4.4
	c-2.5,4-1.1,9.1-0.3,11.7c8.3,27.1,17.7,39.5,17.7,39.5c14.8,19.6,31,40.9,59.1,50.9c18,6.4,32.2,5,47.4,10.7
	c1.9,0.7,8.2,3.2,16.4,2.8c4.4-0.2,7.6-1.1,9.5-1.6c12.2-3.2,22.2-2.5,28.1-2.8c23.3-1.5,51.3-24.2,55.3-27.5
	c11.3-9.2,27.3-25,38.6-48.7c20.3-42.6,12.3-83,8.9-99.3C308.8,80,272.6,48,271.5,47c-0.1-0.1-1-0.8-2.1-2c-2.8-3-5.4-7.2-4.7-7.9
	c1-1.1,10.1,5.8,16.4,11.1c9.6,8.1,22.8,19.1,32.6,37.6c0.3,0.7,3.3,7.8,9.2,22.1c7.3,17.9,11,26.8,11.4,27.8
	c9,24.6,7,47.8,6.3,54.7c-2.3,23.8-10.8,40.4-17.4,53.1c-6.3,12.1-18.5,35.2-43.9,55.3c-3.9,3-24.2,18.8-54.1,27.5
	c-19.9,5.8-22.2,2.1-51.2,10.1c-7.2,2-13,3.8-21.2,3.2c-14.4-1.2-24.3-9.2-31-14.2c-28.6-21.6-32.1-14.3-53.4-31.6
	c-33.8-27.4-46.8-63.1-49-69.5c-2.4-7-12.7-38.2-6-78.1c8.5-51,37.7-74,44.6-87.9c0.4-0.8,1.8-3.7,4.4-4.4c1-0.3,1.4,0,3.6,0.2
	c3.9,0.4,6.6,0.6,7.3-0.5c0.9-1.4-2.3-3.4-2.5-6.5c-0.3-4.3,5.6-8,9.2-10.1c15.6-9.3,30.4-14.5,46.6-20.2c1.4-0.5,3.3-1.2,5.8-1.9
	c7.5-2.2,9.8-1.8,19.6-3.6C162.4,9.3,164.4,8,168.5,9c6.2,1.5,7.9,2.2,7.9,2.2c1.9,0.8,3.1,1.5,5.1,1.6c2.3,0,4-1,4.9-1.4
	c4.3-2.1,6.9,0.6,16.9,1.3c8.1,0.6,11.6-0.8,14.5,2.1c1.1,1.1,1.2,1.8,2.7,3c3.1,2.4,6.8,2.3,8.4,2.4
	C237.9,20.4,246.9,29,246.3,30.5z"/>
<g>
	<path class="st0" d="M68.4,326.4c-6.1-2.9-12.9-1.2-15.2,3.8c-2.3,5,3.5,10.8,6.8,14.1c3.6,3.7,11,9.3,14.4,7.7
		c2.8-1.2,1.7-6.4,0.8-11.5C73.7,333.4,72.9,328.5,68.4,326.4z"/>
	<path class="st0" d="M122.8,344.4c0.7-4.5-5.6-9.9-10.5-12.3c-5.8-2.8-11.3-2.3-16.4-1.8c-4.2,0.4-6.3,0.6-7.9,2
		c-5,4.2-2.4,16.6,5.4,20.8c5.3,2.9,11,0.9,19.3-2C118.4,349,122.3,347.7,122.8,344.4z"/>
</g>
</svg>
