<?xml version="1.0" encoding="utf-8"?>
<!-- Generator: Adobe Illustrator 24.1.1, SVG Export Plug-In . SVG Version: 6.00 Build 0)  -->
<svg version="1.1" id="Layer_1" xmlns="http://www.w3.org/2000/svg" xmlns:xlink="http://www.w3.org/1999/xlink" x="0px" y="0px"
	 viewBox="0 0 360 360" style="enable-background:new 0 0 360 360;" xml:space="preserve">
<style type="text/css">
	.st0{fill:#5E3819;}
</style>
<g>
	<path class="st0" d="M314.1,73.5c-1.8-2.2-3.5-4.4-4.1-7.4c-1-4.7-3.9-8.2-7.5-11.4c-38.1-33.1-82.2-49-132.6-44.8
		c-44.4,3.7-81.6,22.7-112.3,55.1c-9.6,10.2-16.4,22.3-25.3,33c-3,3.5-5.3,5.8-10.6,2.8c-6.2-3.5-12-1.4-14.8,5.5
		c-2.8,7.1-0.6,13.3,6.8,15.3c7,1.9,5.8,5.2,4.3,10.2c-4.3,14.3-10,28.3-8.4,43.8c1.8,31.1,7.8,61,23.7,88.7
		c17.7,30.8,41.2,55.3,73.5,70.5c7,3.3,14.8,4.9,22.3,7.1c2.6,0.8,5.1,0.1,6.4-2.4c1.6-3.2-1.1-4.5-3.2-5.8
		c-1.8-1.2-3.7-2.1-5.7-2.8c-39.1-14.3-64.4-44-86.5-77.3c-2.3-3.5-5.9-7.6-5.6-11.2c1.2-17.1-6.4-32.6-8.5-49.1
		c-3-23.3,2.9-44.3,11.2-64C53.9,90.1,85,63,122.6,44.1c26.2-13.2,55-13.3,83.5-12.7c9.2,0.2,15.4,3.9,18.6,14
		c4.5,14.1,10.4,16.2,23.4,8.1c9.1-5.7,13.4-2.2,18.4,4.5c2.8,3.8,4.1,8.2,6.1,12.4c6.2,13.6,4,30.9,19.5,40.4
		c4,2.5,4.2,8.9,4.2,13.9c-0.1,5.2,1.9,8.5,6.8,10.9c7.9,3.9,10.3,10.7,7,18.8c-2,5.1-0.5,8.7,1.3,13.7c4.1,11,13.4,19.2,15.6,31
		c1.2,6,1.6,10.1-6.7,8.4c-8.7-1.8-14,3.5-18.4,10.1c-3.9,5.9-4.9,12.6-0.3,17.9c5,5.8,10.3,0.8,15.2-1.8c3-1.6,5.8-5.1,9.5-2.6
		c3.1,2.2,2,5.8,1.3,8.9c-1,4.6-0.7,9.1,4.3,10.7c5.7,1.7,7.2-3.5,8.7-7.3C365.8,181.5,355.7,125.1,314.1,73.5z"/>
	<path class="st0" d="M330.5,254.5c-4.4-3.3-6.2,0.5-8.3,3.4c-3.7,5.2-7.2,10.7-11.3,15.6c-20.7,24.8-44.3,44.9-74.9,58.1
		c-23.6,10.1-46.2,15.6-71.2,10.2c-2.5-0.5-5.5-0.9-5.8,2.7c-0.3,3.4,2.8,3.3,5.3,3.8c13.8,2.8,27.5,1.4,39.2,0.3
		c34.2,0.5,60.1-15.3,84.7-33.1c18.4-13.4,30.9-32.2,42.7-51.3C333,260.8,334.2,257.3,330.5,254.5z"/>
</g>
</svg>
