<?xml version="1.0" encoding="utf-8"?>
<!-- Generator: Adobe Illustrator 24.1.1, SVG Export Plug-In . SVG Version: 6.00 Build 0)  -->
<svg version="1.1" id="Layer_1" xmlns="http://www.w3.org/2000/svg" xmlns:xlink="http://www.w3.org/1999/xlink" x="0px" y="0px"
	 viewBox="0 0 360 360" style="enable-background:new 0 0 360 360;" xml:space="preserve">
<style type="text/css">
	.st0{fill:#5E3819;}
</style>
<g>
	<g>
		<path class="st0" d="M208.4,349.2c-16.7,1.8-30.5-1.9-42.2-5.1c-2-0.5-14-5.3-37.7-14.7c-14.5-5.8-22-8.8-29.6-14
			c-8.5-5.8-14.1-11.7-18.3-16.4c-29.9-33.2-50.6-56.2-56.4-90.2c-2.3-13.4-3.1-33.4-1-45.8c0.2-1.3,1.3-7.2,2.4-15.4
			c1.2-8.6,1.8-14.7,1.9-15.9c2.6-23.3,31-41.8,28.5-64.6c-1.8-16.8-18.8-20.7-15.9-32.8C42.7,23.5,58,16.6,70,15.5
			c15.8-1.5,17.7,7.7,37.4,10.2c13.8,1.8,25.7-1.1,49.4-6.8c3.5-0.8,13-3.2,25.9-4.7c0,0,5-0.8,9.8-0.9
			c55.7-1.1,97.7,34.3,117.4,50.8c11.6,9.8,20.5,17.4,28.6,30.7c16.8,27.9,15.5,57,14.5,78.9c-0.6,13.9-1.8,37.7-13.4,65.8
			c-23.5,56.8-69.2,82.7-93,96.2C232.1,343.9,220.9,347.9,208.4,349.2z M192.5,26.1c-2.7,2.9-1.9,7.1-5.3,8.7
			c-4.8,2.2-9.6-4.5-17.8-5.8c-7.5-1.1-13,3.1-20.7,7.7c-29.4,17.5-41.6,10.9-47.8,23.2c-5.7,11.3,3.1,20.4-4.8,29.4
			c-4.6,5.2-8.9,3.8-15.9,11.6c-5.4,6-4.2,8.4-9.2,12.5c-7.4,6.2-13.1,3.3-15.9,8.2c-3,5.2,2.9,9.6,1,19.8
			c-1.1,5.7-3.1,5.4-4.8,11.1c-3,10.2,2.7,13.7,2.4,26.5c-0.1,5.7-1.3,5.1-5.9,24.3c-2.6,10.5-4.1,18.3-4.2,18.7
			c-3.7,18.9,21.4,57.1,56.4,79.6c34.8,22.4,85.6,33.3,134.4,16.4c66.8-23.1,112.8-92.8,106-144.1c-1.4-10.1-10.9-31.2-29.9-73.3
			c-10-22.2-13.6-27.9-19-34.1c-11.4-13-27.7-20.4-60.8-34C214.6,25.7,198.2,19.8,192.5,26.1z"/>
	</g>
	<path class="st0" d="M27.8,38.5c0.8,4.8-0.9,11.3-5.1,12.7c-2.4,0.8-4.9-0.4-6.4-1.2c-0.5-0.3-5.3-2.7-6.6-8
		c-1.4-5.9,1.3-14,6.6-15C21.5,26.1,26.8,32.6,27.8,38.5z"/>
	<path class="st0" d="M25.2,59.4c-0.4,2,0.7,4.2,2.4,5.3c2.1,1.4,5,1.2,6.8-0.5c2.4-2.3,1.8-6.5-0.5-8.2C31,53.9,25.9,56,25.2,59.4z
		"/>
	<path class="st0" d="M202.2,42.5c-2.6,1-4.7,3.4-5.3,6.3c-0.6,3.1,0.8,5.6,1.4,6.8c2.1,3.7,7,7.7,11.1,6.3c2.5-0.9,3.7-3.4,4.3-4.8
		c0.4-0.9,2.6-5.7,0-10.1C211.5,43.1,206.5,40.8,202.2,42.5z"/>
</g>
</svg>
