<?xml version="1.0" encoding="utf-8"?>
<!-- Generator: Adobe Illustrator 24.1.1, SVG Export Plug-In . SVG Version: 6.00 Build 0)  -->
<svg version="1.1" id="Layer_1" xmlns="http://www.w3.org/2000/svg" xmlns:xlink="http://www.w3.org/1999/xlink" x="0px" y="0px"
	 viewBox="0 0 360 360" style="enable-background:new 0 0 360 360;" xml:space="preserve">
<style type="text/css">
	.st0{fill:#5E3819;}
</style>
<g>
	<path class="st0" d="M340.1,136.7c6.5,14.6,15.2,25.2,14,42.2c-5.1,73.3-53.7,137-124.6,157.7c-45.3,13.2-90.7,12.6-133.2-9.7
		C74,315.1,54.2,299,39,277.9C9.7,237.4,3.1,192,10.2,143.9c3.6-24.8,18-44.9,32.2-64.8C73,36,116.1,15.5,167.6,9.3
		c21.6-2.6,43.1-4.9,64.3,1.4c39.8,11.9,74.7,30.9,95.4,69.2c2.4,4.5,4.9,9.1,7.8,13.3c7.3,10.4-3.2,19.6-1.8,29.6
		c0.3,2.2-3.5,1.4-4.5-0.5c-3.5-5.8-8.7-10.8-9.2-18.1c-0.3-4.7-1.9-9-5.3-12c-22.8-20.4-42.6-44.5-72.9-55.4
		c-25.2-9.1-50.2-11.9-76.7-6.8c-14.6,2.8-29,6.4-42.6,11.3c-22.5,8.3-40.8,23.3-52.8,44.8C52.8,115.6,48.2,148,45.9,181
		c-1.8,26.8,8.6,49.9,20.9,73c17.6,33,48.3,48.2,80.1,62.2c10.5,4.6,21.4,0.1,26.4-9.6c2.9-5.8,6.4-7.8,13-10.2
		c20-7,33.2,2.9,45.5,14.8c5.9,5.7,10.2,6.5,16.9,3.1c32.7-16.5,57.2-41,72.5-74.4c2.1-4.5,2.6-9.2,3-14c0.9-9.9,3.8-19.2,7.9-28.5
		c6.8-15.3,4.8-32.2,6.4-48.5C338.9,145.6,337.1,142.1,340.1,136.7z"/>
	<path class="st0" d="M246.6,67.4c1.1-6.4-0.7-15.6,10.4-16.2c6.1-0.3,17.8,11.5,17.5,16.8c-0.3,5.4-12.2,16.2-17.7,15.4
		C248.4,82,246.3,75.7,246.6,67.4z"/>
</g>
</svg>
