<?xml version="1.0" encoding="utf-8"?>
<!-- Generator: Adobe Illustrator 24.1.1, SVG Export Plug-In . SVG Version: 6.00 Build 0)  -->
<svg version="1.1" id="Layer_1" xmlns="http://www.w3.org/2000/svg" xmlns:xlink="http://www.w3.org/1999/xlink" x="0px" y="0px"
	 viewBox="0 0 360 360" style="enable-background:new 0 0 360 360;" xml:space="preserve">
<style type="text/css">
	.st0{fill:#5E3819;}
</style>
<g>
	<g>
		<path class="st0" d="M327.9,225.5c-1.6-0.4-3.9,10.4-10.2,20.8c-8.3,13.8-14.3,11.3-30.5,28.9c-10.3,11.3-10.8,15.5-20.3,22.3
			c-7.5,5.4-14.4,7.9-19.3,9.6c-36.7,12.7-55,19.1-76.6,17.3c0,0-33.4-2.9-48.2-20.8c-3.5-4.2-4.2-7.6-4.2-7.6
			c-1.2-5.8,2.3-8.9,0.2-13c-1.5-3.1-3.8-2.2-5.7-5.5c-2.7-4.7,0.5-8.5-2-10.9c-2.8-2.8-7.8,0.9-11.1-2.1c-2.9-2.6-1.4-7.2-3.7-8.1
			c-1.6-0.6-2.6,1.6-5.7,2.3c-4.5,1.1-6-2.4-10.9-2.3c-5.5,0.2-6.7,4.7-11.7,4.6c-3.7-0.1-6.4-2.7-7.9-4.1
			c-19-18.1-24.9-51.3-24.9-51.3c-4.6-26.1-10.6-59.6,6.3-88.3c8-13.5,14.3-14.7,24.1-33.8c4.7-9.2,8.3-18.8,15.4-19.7
			c6.7-0.8,12.2,6.8,15,4.8c2.7-1.9-2.2-8.6,1-14.5c3-5.5,11.2-6.6,16.9-7.4c9.3-1.3,10.3,1.4,17.1-0.2c10.5-2.5,11-9.7,17.3-9.3
			c8.8,0.6,11.6,14.7,21.9,14.5c0.8,0,0.2-0.1,4.6-1c10.7-2.1,16.1-3.1,19-1c3.3,2.4,2.2,6.2,5.3,7.4c2.7,1,5.1-1.1,8.6-2.7
			c6.6-3,9.8-0.9,20-1.5c12.9-0.8,13.7-4.7,21.3-4.4c8,0.3,14.6,4.7,24,13.9c13.5,13.1,25.9,25.2,36.4,48.9
			c13.3,30.1,13.7,56.9,15.4,56.7c1.1-0.1,1.3-9.7,0.4-19.6c0,0-5.7-60.9-58.2-98.8c-12-8.6-19.7-8.2-21.9-8
			c-5.1,0.5-5.7,2.4-12.4,3.2c-6.9,0.8-18.4,0.1-21.5-5.9c-1.6-3.2-0.3-6.3-1.9-7c-2.1-0.9-4.4,4-9.5,4.8c-3.3,0.5-6-1-7.4-1.7
			c-13.3-6.7-38.1-9.3-37.7-12.4c0.3-2.8,21-2.8,35.8-1.7c23.1,1.7,40.1,6.6,44.7,8c13.6,4.1,28.9,8.7,45.9,20.7
			c6.2,4.4,17.4,12.5,27.6,26.5c8.4,11.5,13.4,23.3,14.3,22.9c0.6-0.3-1.5-6.5-3.5-11.1c-6.7-15.6-17.8-26.4-28.3-35.1
			c-15.4-12.7-35.5-29.2-67.2-38.1c-10.3-2.9-2.5,0.4-63.4-6.3c-9.4-1-18.6-2.1-30.1,1.1c-7.7,2.2-14.4,6.4-28,14.8
			C92.7,31,95.4,30,77,42.3C60.9,53,55,56.5,49.2,65.2c-2.4,3.6-2.7,5-5.7,11c-8.5,17.2-16.6,27.6-20.2,33.1
			c-13.2,20.1-13.6,46.4-14.1,73.1c-0.2,11.3-0.9,49.5,12.2,62c1.8,1.8,5.5,4.5,7.6,9.9c3,7.7-0.4,12.7,3.8,17.9
			c2.8,3.5,6.3,3.6,6.5,6.5c0.2,2.9-3.3,3.9-3.4,7.6c-0.1,3,2.1,3.7,1.6,6.3c-0.5,2.9-3.3,3.1-3.4,5.5c-0.2,3.2,4.9,4.5,4.7,7.5
			c-0.2,3.2-6.3,4.1-6.2,6.7c0,2.6,5.8,2.5,8.1,6.7c2.7,5-2.6,10.4-0.1,13.3c2.7,3.2,9.9-2,14.8,1.5c5,3.6,3.3,13.2,5.1,13.3
			c1.8,0.1,3-9.9,6.1-10.2c3-0.2,4.2,8.8,8.6,9.4c4.4,0.6,6.6-8,12.2-8c5,0,8.1,6.8,10.5,5.6c1.3-0.6,0.6-2.5,2.2-6
			c1.1-2.5,3.1-5.5,5.5-6.7c4.4-2.3,10.5,1.3,13.2,2.8c9.9,5.5,18.5,7.6,32.5,10.9c8.9,2.1,22.8,5.3,36.4-0.4
			c3.5-1.5,3.1-1.9,7.9-3.9c11-4.7,18.3-4.6,26.6-6.3c7.1-1.5,12.8-4.2,24.1-9.6c17.7-8.5,30.2-17.9,35.8-22.3
			c6.1-4.9,15.3-12.2,25.1-24.1c17-20.6,20.5-36.2,21.4-45C328.6,232.2,329.2,225.8,327.9,225.5z"/>
		<path class="st0" d="M28.2,300.1c-2.2,1.4-5.9,0.8-6.6-1c-0.8-1.9,1.5-5.4,4.3-5.3c2,0,4.2,1.9,4.1,3.8
			C29.9,299.1,28.5,300,28.2,300.1z"/>
		<path class="st0" d="M11,259c-0.2,1.5-5.4,3.4-8.6,0.8c-1.8-1.5-2.9-4.3-2-5.3C2,252.6,11.3,256.9,11,259z"/>
		<path class="st0" d="M125.4,295.6c0.3-2.5,4.6-4,6.1-2.8c1.6,1.3,0.8,6.2-1.5,6.9C128.1,300.1,125.2,297.8,125.4,295.6z"/>
		<path class="st0" d="M250.7,53.7c-0.9,0.9-0.1,2.8,0.3,3.7c0.4,0.9,0.7,1.7,1.5,2.1c0.5,0.3,1,0.2,1.4,0.7
			c0.3,0.4,0.2,0.7,0.4,1.1c0.6,0.9,2.3,1.1,2.6,0.6c0.3-0.4-0.6-1.2-0.3-1.7c0.3-0.5,1.6-0.1,1.7-0.4c0.1-0.3-0.9-0.8-0.8-1.5
			c0.1-0.7,1.2-0.9,1.2-1.5c0-0.5-0.7-0.5-1.3-1.1c-0.8-1.1-0.2-2.5-0.6-2.7c-0.5-0.2-1.1,1.2-2.2,1.1c-0.6-0.1-0.6-0.6-1.4-0.9
			C252.4,53,251.3,53.1,250.7,53.7z"/>
		<path class="st0" d="M118.5,343.4c-1.7,1.2,0,10.7,5.3,11.8c1.7,0.4,4.4-0.1,4.9-1.5C130.1,350.3,120.5,342,118.5,343.4z"/>
	</g>
	<path class="st0" d="M323.6,100.9c-0.2,0.1-0.1,0.9,0.2,2c0.5,2.5,1.4,3.2,2.1,4.9c1.3,3.3,0,5.9,0.9,6.2c0.6,0.2,1.6-0.6,2.2-1.6
		C331,108.3,324.4,100.5,323.6,100.9z"/>
</g>
</svg>
