<?xml version="1.0" encoding="utf-8"?>
<!-- Generator: Adobe Illustrator 24.1.1, SVG Export Plug-In . SVG Version: 6.00 Build 0)  -->
<svg version="1.1" id="Layer_1" xmlns="http://www.w3.org/2000/svg" xmlns:xlink="http://www.w3.org/1999/xlink" x="0px" y="0px"
	 viewBox="0 0 360 360" style="enable-background:new 0 0 360 360;" xml:space="preserve">
<style type="text/css">
	.st0{fill:#5E3819;}
</style>
<g>
	<path class="st0" d="M343.7,104.2c-1-3.2-2-6.2-2.8-9c-6.4-21.7-30.5-44.2-32.9-46.4c-7.3-2.4-13.4-6-17.9-10.7
		c-0.5-0.5-1-1-1.4-1.5c-2.3-2.4-4.6-4.9-8.5-6.2c-1.9-0.6-3-0.6-4.2-0.5c-1.1,0.1-2.3,0.1-4.1-0.3c-4.9-1.2-7.3-4.3-9.6-7.4
		c-1.8-2.4-3.7-4.8-6.8-6.4c-3.3-1.7-6-1.3-10.4-0.6c-1.8,0.3-3.8,0.6-6.3,0.8c-6.5,0.6-9.4,0-15.2-1.1c-4-0.8-9.6-1.8-18.9-2.9
		c-19.7-2.4-29.6-3.6-37.3-1.2c-4.6,1.4-7.2,2.9-9.9,4.5c-3.4,1.9-6.8,4-13.9,5.6c-5.1,1.2-7.8,1.2-10.7,1.2c-2.9,0-5.9,0-11.9,1.2
		c-10.6,2.2-19.1,3.9-25.1,10.5c-1.3,1.4-2.1,2.7-3,4c-1.4,2-2.8,4.1-6,7c-3,2.6-5.2,3.9-7.4,5.1c-1.2,0.7-2.3,1.3-3.6,2.2
		c-5.2,3.6-7.7,8-12.9,17.7c-8.6,16.1-13.4,25-16.8,38l-0.1,0.6c-0.9,3.6-2.1,8.1-5.8,9.5c-2.7,1-5-0.3-7.4-1.6
		c-2.2-1.2-4.5-2.5-7.6-2.5c-0.2,0-0.3,0-0.5,0c-5.6,0.2-9.8,4.7-11.4,6.7c-4.6,5.7-4.4,12.5-3.8,17.1c1.1,9.5,4,16.3,8.7,20.7
		c2.2,2.1,4.8,3,7.5,4c3.5,1.2,7.2,2.5,10.2,6.7c1.5,2,2.1,3.8,2.5,4.7c9.2,23.7,13.8,35.5,19.2,59.5c6,27,31.9,51.4,76.9,72.6
		c16.5,7.7,44,20.7,77.5,15c15.6-2.7,27.9-9.5,42.2-17.4c4.5-2.5,9.2-5.1,14.1-7.6c36.7-18.9,46.8-38.9,69-82.7l3.7-7.3
		C362.7,162.5,351.3,127.4,343.7,104.2z M333.8,158.6c0.1,5.2-0.2,10.4-0.8,15.6c-4.3,37-26.4,71.2-57.6,91.5
		c-31.2,20.3-70.8,26.6-107.1,18.3c-50.9-11.6-98.5-51.6-106.8-104.6c-2.6-16.9-2.6-34.1-2.4-51.1c0.1-6.2,0.2-12.6,2.7-18.3
		c2.5-5.7,8-10.6,14.2-10.3c6.3,0.3,11.2,4.8,17.2,5.5c4.7,0.6,7.8-4.2,11.9,0.2c1.2,1.3,2.1,2.9,3.2,4.3c9,11.6,34.1,7.5,31.1-9.9
		c-0.7-4.1-3.4-7.7-4.1-11.9c-1-5.9,2-12,0.9-17.9c-1.5-8.2-10.2-13-14.1-20.4c-0.9-1.6-1.5-3.7-0.6-5.3c1.1-2,3.9-2.4,6-1.6
		s3.7,2.5,5.4,4c6.9,6.2,16.2,9.7,25.4,9.4c2.3-0.1,4.8-0.4,6.4-2c6-5.5-4.1-15.8-0.5-23.1c2.1-4.2,8.2-4.9,12.2-2.5
		c4,2.4,6.2,6.9,7.5,11.4c0.9,3.1,2.2,6.9,5.4,7.2c1.2,0.1,2.4-0.5,3.5-1c7.9-3.8,15.3-8.5,22.2-14c3.3-2.6,6.6-5.4,10.6-6.5
		c4.1-1,8.4-0.1,12.4,1.1c25.1,7.3,46.9,24,63.3,44.4C321,95.8,333.4,127,333.8,158.6z"/>
	<path class="st0" d="M146.2,83.2c-1.3,0.9-1.3,4.6,0.8,5.6c2,1,4.7-0.9,4.8-2.4C152,84.4,147.7,82.1,146.2,83.2z"/>
	<path class="st0" d="M22.9,172.9c-1.7,0.5-2.1,1.2-2.2,1.6c-0.6,1.8,2.2,4.9,5.4,5.4c2.5,0.4,5.5-0.7,6.8-3.4
		c1.2-2.4,0.7-5.7-1.2-7C29.5,168,25.1,168.9,22.9,172.9z"/>
</g>
</svg>
