<?xml version="1.0" encoding="utf-8"?>
<!-- Generator: Adobe Illustrator 24.1.1, SVG Export Plug-In . SVG Version: 6.00 Build 0)  -->
<svg version="1.1" id="Layer_1" xmlns="http://www.w3.org/2000/svg" xmlns:xlink="http://www.w3.org/1999/xlink" x="0px" y="0px"
	 viewBox="0 0 360 360" style="enable-background:new 0 0 360 360;" xml:space="preserve">
<style type="text/css">
	.st0{fill:#5E3819;}
</style>
<g>
	<path class="st0" d="M72.7,47.9C65.4,48,49.3,61.3,34.5,88.2c-10.3,18.7-32,58.2-25.8,112.6C15,257,47,292.1,56.7,302.5
		c37.7,40.3,85.3,54.1,103.8,54.9c1,0,7.9,0.3,17.1,0.3c16.9,0,26.1,0.2,36.7-1.5c21.3-3.5,36.2-10.8,40.3-12.9
		c11.2-5.7,18.6-11.6,26.9-18.1c3.5-2.7,15-12,25.3-23.2c23.9-26.1,34.7-55.9,37.2-63c3.2-9.1,22.8-68.3-2.1-127.1
		c-4.6-10.8-9.6-18.8-19.6-34.6C306.2,52,295.3,41,282.9,37c-2.4-0.7-11.3-3.6-13.4-0.5c-1.2,1.8,0.3,4.8,0.5,5.2
		c2,3.7,6,4.7,9.8,6.2c8.1,3.2,15.3,8.7,19.1,13.9c3.3,4.5,2.3,6.3,5.2,12.9c4.9,11.4,12.6,17.9,15.5,20.7
		c13.1,12.8,22.9,46.8,24.8,73.3c3.7,51.2-20.8,88.7-28.9,100.7c0,0-25.7,38.1-64.6,56.3c-9,4.2-15.1,7.1-24.3,8.3
		c-14.8,1.9-21.1-2.8-36.7,1c-8.3,2-8.5,3.9-15.5,4.6c-9.8,1.1-16.6-1.8-25.8-4.6c-18.3-5.7-20-3.3-32.5-7.2
		c-24.1-7.6-39.6-23.4-48.6-32.5c-15-15.3-27-27.6-28.4-44.9c-0.1-1.9,0.1-10.5,0.5-27.9c0.3-11.5,0.5-17.2,1-19.1
		c4.3-14.1,15.3-13.7,22.7-28.9c1.8-3.8,8.2-16.7,3.1-26.3c-6.3-11.9-25.1-8.8-26.9-17c-1.5-6.9,11.3-9.9,15-23.8
		c2.9-10.9-3.9-13.5-2.1-24.8c3.1-18.9,25.1-30,22.5-33.8C74.5,47.9,73.3,47.9,72.7,47.9z"/>
	<path class="st0" d="M260.4,35.4c1-0.9-0.8-5.3-3.5-8.3c-2.2-2.6-4.3-3.5-15.9-7.6c-9.5-3.4-12.1-4.2-14.9-2.7
		c-1.6,0.9-3.9,2.8-3.5,4.5c0.7,3.3,10.8,0.7,22.7,5.6C254.4,30.7,259.1,36.6,260.4,35.4z"/>
</g>
</svg>
