<?xml version="1.0" encoding="utf-8"?>
<!-- Generator: Adobe Illustrator 24.1.1, SVG Export Plug-In . SVG Version: 6.00 Build 0)  -->
<svg version="1.1" id="Layer_1" xmlns="http://www.w3.org/2000/svg" xmlns:xlink="http://www.w3.org/1999/xlink" x="0px" y="0px"
	 viewBox="0 0 360 360" style="enable-background:new 0 0 360 360;" xml:space="preserve">
<style type="text/css">
	.st0{fill:#5E3819;}
</style>
<path class="st0" d="M33.8,250.1c-12-12-11.4-30.1-21.5-44.2c-6.5-9.2-4.1-22.9-1.1-33.8c5.4-19.5,11.8-38.9,22.1-56.6
	c0.9-1.5,1.4-3.1,4.4-3.7c-2.5,10.7,0.4,21.9-8.4,30.5c-1.9,1.9-0.4,4.7,0.9,6.9c5.6,9.4,4.4,18.6,0,28c-1.7,3.6-4.8,8.2,3.1,8.9
	c0.9,0.1,2.5,0.9,2.5,1.5c1,12.2,13.3,21.1,10.4,34.2c-1,4.6,0,6.3,4.1,7.7c3.8,1.2,7,3.8,7.3,8.1c0.3,5.1-3.8,7.1-7.4,9.2
	c-11.6,6.5-11.1,9-4.2,21c18.8,32.4,49,48.9,83.1,58.1c30.2,8.2,61.3,6.4,91-3.6c19.3-6.5,39.9-10.2,56.9-22.8
	c19.8-14.6,35.4-32.9,46.4-54.7c8.1-16,3.9-31.2-7-44.9c-5.7-7.1-6.7-16.9-12.6-23.9c7.8-11.2-3.9-24.2,3.4-35.8
	c6.5-10.4,6.4-22.2,1.8-33.4c-2.5-6.1-6-12.2-10.5-16.8c-27.9-28.3-58.5-51.6-99.9-56.9c-15.3-1.9-30-0.5-44.9,0.7
	c-2.4,0.2-5,0.8-7,2C128.2,47.9,107.3,55.2,87.1,64C71.1,71,61,84.7,50.6,97.9c-3,3.8-5.7,7.7-12.2,10.1
	c2.3-10.7,8.3-18.2,13.6-24.5c23.4-27.9,50.9-51.3,87.1-60.6c16.7-4.3,34.5-4.3,51.7-6.2c23.9-2.5,44.9,4,66.7,10.1
	c9.7,2.7,16.6,9,23.4,15.3C295.1,55.6,313,65.2,321.1,85c5,12.1,16,21.1,21.2,33.6c0.9,2.3,3.3,4.7,2.9,6.6
	c-4.7,24.6,12.5,46.4,8,71.3c-4.3,23.9-7.9,47.8-21.4,68.6c-10.9,16.6-22.2,32.4-38.8,44.8c-12.3,9.2-25.4,17.1-37.8,26.2
	c-8.7,6.3-20.2,9.5-30.9,12.2c-34.1,8.5-68.2,12.6-102.8,0.7c-33.3-11.4-60.1-30.9-80.6-59.4c-2.7-3.7-4.3-9.5-11.2-5.3
	c-4.3,2.6-6.5-1.5-8-4.5c-4.1-8.3-7.6-16.7-1.7-25.8c2.4-3.6,5-4.6,8.8-2.7C30.2,252,31.5,252.5,33.8,250.1z"/>
</svg>
