<?xml version="1.0" encoding="utf-8"?>
<!-- Generator: Adobe Illustrator 24.1.1, SVG Export Plug-In . SVG Version: 6.00 Build 0)  -->
<svg version="1.1" id="Layer_1" xmlns="http://www.w3.org/2000/svg" xmlns:xlink="http://www.w3.org/1999/xlink" x="0px" y="0px"
	 viewBox="0 0 360 360" style="enable-background:new 0 0 360 360;" xml:space="preserve">
<style type="text/css">
	.st0{fill:#5E3819;}
</style>
<path class="st0" d="M258.2,28.4c-1,0.2-3-0.2-4.8-1C194.7,2.4,119.1,10.1,71.2,54c-23.9,21.8-39.7,51.5-45.4,83.3
	c-7.2,39.8,2,82.1,23.2,116.4c26.5,43,76.2,71.4,126.2,75c42.3,3.1,85.6-11.1,117.9-38.6c32.3-27.5,53.3-67.9,57.1-110.1
	c3.2,0.6,4,4.8,4.1,8.1c0.7,65-39,125.3-97.8,152.1c-25,11.4-52.7,16.9-80.2,15.4c-59.7-3.3-116-39.3-145.2-91.3
	c-18.9-33.1-28.3-72-24.5-110.1c3.7-37.7,19.5-74,46.4-100.9c46.1-45.2,119.6-58,179.9-37.6c5.5,1.9,11.1,3.7,16.5,5.8
	c2.3,0.9,6.7,2,8.4,3.9C259.4,27.3,259.2,28.2,258.2,28.4z"/>
</svg>
