<?xml version="1.0" encoding="utf-8"?>
<!-- Generator: Adobe Illustrator 24.1.1, SVG Export Plug-In . SVG Version: 6.00 Build 0)  -->
<svg version="1.1" id="Layer_1" xmlns="http://www.w3.org/2000/svg" xmlns:xlink="http://www.w3.org/1999/xlink" x="0px" y="0px"
	 viewBox="0 0 360 360" style="enable-background:new 0 0 360 360;" xml:space="preserve">
<style type="text/css">
	.st0{fill:#5E3819;}
</style>
<path class="st0" d="M168.4,8.5c29.9-2.2,62,10.4,92.2,28.8c18,11,30.3,27.8,42.1,44.7c6,8.6,12.1,15.3,23.5,17.5
	c28.2,5.3,29.5,31.4,26,51.9c-0.6,3.6-4.4,5.5-7.2,7.9c-5,4.4-9,9.6-11.2,15.9c-1.7,5-4,9-9.5,10.3c-2.9,0.7-4.8,2.5-4.4,5.6
	c0.3,2.4,0.5,4.7,4.8,4.2c3.3-0.4,2.3,4.1,1.9,6.3c-4.1,20.2-8.9,39.7-21.8,57.2c-15.7,21.1-32.8,39.8-56,52.7
	c-51.6,28.6-103.5,30.8-155.6,1.9c-32.8-18.2-55.3-45.5-69.5-80C-2.8,169.2,8,110.7,51.9,58.1C80.3,24,117.6,8,168.4,8.5z M23.3,175
	c-0.5,10,0,19.4,2,28.8c1.8,8.6,3.6,16.8,14.2,18.9c2.9,0.6,5.9,2.8,6.1,5.8c0.5,8.2,0.5,16.2,10.7,18.9c0.6,0.2,0.9,3,0.7,4.6
	c-0.4,3.6,0.3,6.3,3.8,8.2c3.3,1.8,4.1,5.3,3.7,8.6c-0.9,6.9,2.8,11.3,7.5,15.1c4.6,3.7,9.3,7.3,14.2,10.5
	c22.1,14.3,45.7,24,72.6,24.6c19.5,0.4,38.6-1.8,57.8-3.7c6.8-0.7,13-1.6,18.4-5.3c6.2-4.3,12.8-8,19.1-12.1
	c18.4-11.9,32.1-27.9,43-47.1c10.4-18.2,13.4-38.3,17.9-57.9c1.9-8.1-0.7-17.5-2.3-26.1c-1.1-5.5-7.6-5.5-11.7-8.1
	c-6.6-4.2-8.9-9.4-6.6-17.5c3.1-11-1.5-23.4,5.9-33.9c0.7-1-0.6-3.8-1.4-5.5c-5.9-13.3-13.2-25.2-24.3-35.4
	c-9.5-8.8-19.9-15.8-30.7-22.5c-11.9-7.3-24.7-11.8-38.2-14.3c-18.3-3.3-36.3-2-54.7,0.9C120.9,35.2,94,47,69.2,63.9
	c-9.9,6.7-18.5,16-24.3,26.8C30.9,117.2,21.9,145,23.3,175z"/>
</svg>
