<?xml version="1.0" encoding="utf-8"?>
<!-- Generator: Adobe Illustrator 24.1.1, SVG Export Plug-In . SVG Version: 6.00 Build 0)  -->
<svg version="1.1" id="Layer_1" xmlns="http://www.w3.org/2000/svg" xmlns:xlink="http://www.w3.org/1999/xlink" x="0px" y="0px"
	 viewBox="0 0 360 360" style="enable-background:new 0 0 360 360;" xml:space="preserve">
<style type="text/css">
	.st0{fill:#5E3819;}
</style>
<path class="st0" d="M232,23c9.7,0,17.7,3.9,26.1,6.8c27.4,9.4,42.4,32.2,57.9,54c12,16.9,22.3,35.3,26.9,55.9
	c6.9,31.1,8.3,62.1-3,92.9c-7.1,19.3-15.2,38.4-27.5,54.5c-14.2,18.6-27.4,39.8-53.6,44.6c-4.6,0.8-6.9,5.5-9.8,8.9
	c-7.5,8.6-16.4,9.8-25.1,3.1c-4.2-3.2-7.3-2.8-9.2,1.5c-4.1,9.5-9.3,9-18.8,6.4c-18.7-5.1-38.8-5.3-57.5-10.4
	c-24-6.6-50-9.3-67.6-31.5c-5.2-6.5-13.6-11.3-19.9-17.6c-23.6-23.2-35.2-52-42.2-84c-5.4-24.9-3.1-48.6,2.1-72.8
	c4.2-19.7,14.4-36.6,25.3-53.1c9.5-14.4,19.8-29.3,34-38.6c19.5-12.8,35.6-30.9,61.4-34.6c21.8-3.1,42.6-0.7,63.8,1.7
	c2.7,0.3,5.4,1.4,7.8,2.6c2.4,1.2,2.9,3.8,2.5,6.3c-0.4,2.5-2.7,3.7-4.7,3c-18.7-6-33,7.5-49.6,10.9c-11.5,2.3-22.6,6.5-33.9,9.9
	c-3.4,1-6.8,1.1-10.3,0.7C93,42,81,47.2,74.7,60c-5.4,11.1-13.6,19.9-21,29.5c-20,26.1-28,55.7-26,88.3c1,15.9,2.7,31.6,8.7,46.7
	c12.9,32.1,35,56.8,61.3,78.4c14.3,11.8,31.1,17.9,48.9,21.7c8.8,1.9,18,3.4,24.3-6.1c0.7-1.1,2.2-2.2,3.4-2.2
	c18.1-0.6,29.8-14.3,44.5-21.7c6.2-3.1,12.9-6.4,17.8,2.5c2.3,4.2,5.2,2.6,8.7,0.5c9.5-6,15.3-14.9,20.2-24.4
	c3.6-7.1,8.8-10.7,16.5-10.3c6.6,0.3,11.2-2.8,15.3-7.3c17.8-19,25.7-42,28.2-67.6c2.2-22.7-4.2-44.7-4.5-67.1
	c0-2.2-0.7-4.5-2.7-5.3c-9.2-4-15.1-11-20-19.4c-1.1-1.9-3.8-3.2-3.8-5.8c-0.2-14-10.9-18.9-21.2-23.8c-3.6-1.8-7.6-3.7-8.1-7.4
	c-2.3-17.4-17.7-21.7-28.8-30.4c-1.3-1-2.8-2-4.1-3C232.1,25.4,232.2,24.9,232,23z"/>
</svg>
