<?xml version="1.0" encoding="utf-8"?>
<!-- Generator: Adobe Illustrator 24.1.1, SVG Export Plug-In . SVG Version: 6.00 Build 0)  -->
<svg version="1.1" id="Layer_1" xmlns="http://www.w3.org/2000/svg" xmlns:xlink="http://www.w3.org/1999/xlink" x="0px" y="0px"
	 viewBox="0 0 360 360" style="enable-background:new 0 0 360 360;" xml:space="preserve">
<style type="text/css">
	.st0{fill:#5E3819;}
</style>
<g>
	<path class="st0" d="M184.5,345.2c-14.1,5.1-17.2,9.7-27.8,10.5c-16.5,1.2-29.8-8.4-40-15.6c-11.8-8.4-12.1-12.2-32.9-30.7
		c-9.5-8.4-14.1-11.8-18.3-15.4c-30.3-25.9-49.5-73.8-51.2-119c-0.3-8-0.6-16.4,1.2-27.7C20.5,116.9,33.3,112,60.3,59
		c4.5-8.9,7.7-15.6,15.2-22.5c12.6-11.4,27.1-13.9,38.5-16c59.2-11,50.5-15.1,70.5-15.5c59-1.1,103.6,36.3,124.4,53.9
		c12.3,10.4,21.8,18.4,30.3,32.6c17.8,29.6,16.4,60.4,15.4,83.7c-0.8,18.2-1.9,42.1-14.2,69.7c-21.8,48.9-71.1,91.7-111.6,94
		C219.4,339.3,204.3,338,184.5,345.2z M184.5,18.5c-86.4,0-156.6,70.3-156.6,156.6c0,50.2,24,111.8,52.9,117.2
		c8.2,1.5,22.8-0.2,39.5,9.6c9.1,5.4,11.7,10,20.3,11.5c12.4,2.1,15.9-5.9,29.1-5c10.9,0.8,12.9,6.5,28.4,12.7
		c0,0,12.3,4.9,30.6,6.7c38.2,3.7,124.4-78.1,112.4-152.7c-3.8-23.6-18.3-51.6-36.3-86.6c-7.5-14.5-11.2-21.8-15.5-27.3
		C255,17.7,187.7,18.5,184.5,18.5z"/>
</g>
</svg>
