<?xml version="1.0" encoding="utf-8"?>
<!-- Generator: Adobe Illustrator 24.1.1, SVG Export Plug-In . SVG Version: 6.00 Build 0)  -->
<svg version="1.1" id="Layer_1" xmlns="http://www.w3.org/2000/svg" xmlns:xlink="http://www.w3.org/1999/xlink" x="0px" y="0px"
	 viewBox="0 0 360 360" style="enable-background:new 0 0 360 360;" xml:space="preserve">
<style type="text/css">
	.st0{fill:#5E3819;}
</style>
<g>
	<path class="st0" d="M13.5,74.3C9.8,67.1,9.9,60.5,10,57.9c0.1-5.1,0.2-9.1,3.1-12.1c1.8-1.9,3.7-2.3,5.5-5.2
		c1.4-2.5,0.9-3.6,2.4-5c1.8-1.8,4.1-1.3,7.1-1.9c4.7-0.9,6.2-3.2,9.5-4.7c7.9-3.7,20.2-0.1,26.3,6.9c4.1,4.6,1.6,6.4,6.6,12.8
		c4.5,5.6,8,6.2,11.2,12.3c2.7,5.1,2.6,7.6,2.1,9.3c-0.7,2.3-2.3,3.7-3.1,4.3c-3.3,2.7-6.4,2.1-10.2,3.1c-6.6,1.7-5.6,5.9-13.8,9.7
		c-6.6,3.1-12.4,3.5-14.5,3.6c-3.1,0.1-8.6,0.2-14.7-2.6C18.8,84.2,14.8,76.8,13.5,74.3z"/>
	<path class="st0" d="M347.2,143.2c-0.9-1.6-4.1-6.4-4.2-12.9c0-2.6,0.5-3.4,0.3-5.7c-0.4-6.4-4.8-11-6.3-12.7
		c-9.1-10-7.7-17.6-23.1-36.1c-3.7-4.4-19.5-23.3-40.1-33.2c-4.1-2-11.1-4.9-17.8-7.4c-7.4-2.8-11.8-4.4-16.7-5.4
		c-10.4-2.1-19.1-0.7-25.9,0.6c-38.3,7.3-57.5,10.9-72.3,18.4c-12.5,6.3-33.6,16.8-50.6,39.8c-16.7,22.6-22.3,47.6-20.8,48.3
		c1.3,0.6,16.1-27.9,17.9-27c1.3,0.6-4.3,16.8-6.2,22.1c-1.1,3.1-2.6,6.9-3.3,12.3c-0.4,3-0.3,4-0.7,7.8c-0.7,5.8-1.7,9.4-2.1,11.6
		c-1,4.6-0.7,8.2,1.2,20.9c3.1,21,4.8,27.1,4,27.3c-1.1,0.3-7-12.3-10.1-27c-2.3-11-2.6-20.9-2.6-20.9c-0.3-10.8,1.1-19.8-0.2-20
		c-0.7-0.1-1.7,2.2-1.9,2.8c-10.5,25.1,4.7,62.3,4.7,62.3c5.3,12.9,24,58.4,74.9,84.6c10.9,5.6,33.5,17,64.7,17.2
		c48.2,0.4,96.9-25.8,120.4-67c13.6-23.9,16.2-48.5,18.3-68.4C350.1,162.1,351.3,150.4,347.2,143.2z M210.1,289.1
		c-57.5,1.9-96.3-45.1-103.5-61.1c-2-4.4-6.1-13.6-2.2-20.6c4.1-7.3,15.1-8.4,14.9-13.3c-0.1-3-4.4-3.6-5.4-8.5
		c-0.6-2.8,0.5-3.6,0.9-8.2c0.6-6.8-1.5-7.8-0.6-10.8c2.3-7.7,18.3-6.5,19.2-11.8c0.5-3.1-5-3.8-9.3-11.6c-3.1-5.6-1.2-6.9-4.7-13.3
		c-2.6-4.7-4.4-5.3-7-10.4c0,0-2.2-4.5-3.2-9.2c-2-10.2,17.1-27.7,38-40.2c34-20.3,61.7-20.6,69-19.3c1.3,0.2,4.6,1,9.8,1.6
		c9.9,1.2,11.4,0.2,14.3,1.8c3.7,2.2,2.7,4.7,7.9,14.3c4.9,9.1,7.2,9.2,8.5,14.9c1.6,6.8-1.3,8.1,0.6,12.7c2,4.8,5.8,4.9,19.6,12.7
		c10.9,6.2,10.8,7.4,14.6,7.8c9.6,1,14.2-6.6,19.6-3.7c2.5,1.3,3.9,5.3,6.6,13.3c1,2.9,1.9,5.6,2.8,9.8c2.5,11.3,5.2,34,5.1,41.5
		C325.1,203.4,284.9,286.6,210.1,289.1z M337,189c-2.3,8.7-6.2,17.4-7.3,17.1c-1-0.3,1-7.1,1.9-17.4c1.6-18.9-0.4-47.5-4.3-55.8
		c-0.4-0.8-1.9-3.8-0.6-5.4c0.8-1,2.4-1,3-0.9c4.7,0.6,6.8,14.5,7.8,21.2C339.4,161,341.1,173.5,337,189z"/>
</g>
</svg>
