<?xml version="1.0" encoding="utf-8"?>
<!-- Generator: Adobe Illustrator 24.1.1, SVG Export Plug-In . SVG Version: 6.00 Build 0)  -->
<svg version="1.1" id="Layer_1" xmlns="http://www.w3.org/2000/svg" xmlns:xlink="http://www.w3.org/1999/xlink" x="0px" y="0px"
	 viewBox="0 0 360 360" style="enable-background:new 0 0 360 360;" xml:space="preserve">
<style type="text/css">
	.st0{fill:#5E3819;}
</style>
<g>
	<g>
		<g>
			<path class="st0" d="M13.6,229.5c2.8,3.6,7.8,5.1,11.7,4c3-0.8,3.5-2.6,8.1-7.2c7.6-7.6,12.1-8.3,11.7-10.8
				c-0.5-3-7.8-5.7-13.5-4c-4.3,1.2-4.1,3.8-9.4,5.8c-5.6,2.1-8.6,0.3-10.3,2.7C10,222.6,11.7,227,13.6,229.5z"/>
			<path class="st0" d="M59,232.7c-2.6-7-6.3-13.5-9.4-20.2c-1.7-3.6-2.8-6.1-5.4-8.5c-5.3-5.1-9.6-3.2-13.5-6.7
				c-5.9-5.3-0.3-13-4.5-23.8c-4.9-12.6-17.3-14.5-16.2-19.8c1.5-7.2,24.4-3.5,29.7-14.8c3.4-7.2-4-12.8,0-20.7
				c3.8-7.6,11.7-4.8,18-13c6.5-8.5,0.8-15.4,7.6-22.9c2.4-2.6,3.1-1.9,16.6-8.5c12.3-6,14.2-7.9,15.7-6.7
				c3.7,2.6,1.4,18.8-8.1,26.5c-3.4,2.7-7.6,4.4-7.6,7.6c0,3,3.7,3.7,4.5,6.7c1.8,7.2-15.5,15.5-13.9,19.3c1.4,3.6,17.7-1.9,21.1,4
				c1.5,2.5,0,6-0.9,8.1c-3.5,8.3-11.7,9.7-11.2,13.5c0.4,3.5,7.7,3.8,8.1,7.6c0.3,3.2-4.5,4.3-4.9,8.5c-0.5,4.4,4.4,5.6,4.5,9.9
				c0.2,6.9-12.1,9.1-12.6,17.1c-0.2,3.9,2.7,4.1,3.6,9.9c1.1,6.7-2.4,9.8-3.1,16.6c-0.2,1.5-0.5,6.1,4,17.1
				c3.5,8.4,8.8,21.6,21.6,34.2c16,15.8,34.1,22,49.9,27.4c19.2,6.6,33,8,32.8,9.4c-0.2,1.6-17.6,3-35.5-0.9
				C96.9,298.1,64,246,59,232.7z"/>
		</g>
		<path class="st0" d="M221,309.6c-0.1-1.3,5-2.8,5.8-3c8.2-2.5,48.5-23.9,73.2-60.5c17.3-25.5,37.2-73.8,22-99.8
			c-2.7-4.6-10.5-15.4-16.8-33.3c-3.7-10.4-2.8-11.7-5.6-18.6c-7.5-18.5-22-29.1-31.1-35.8c-3.8-2.8-19.7-14.1-45.1-20.8
			c-49.1-12.8-97.1,1.4-109,9c-1.4,0.9-7.6,5.1-9.2,3.6c-0.9-0.9,0-3.7,1.3-5.6c3.3-4.9,9.6-5,17.3-6.9c7.2-1.8,7.2-3,18.1-7.3
			c14.8-5.8,27.8-10.9,43.6-11.2c2.7-0.1,12.3,1,31.5,3c3.8,0.4,12.3,1.3,15.5,1.7c25.3,3.2,48.6,17.3,51.4,19
			c32.5,20,47.7,49.6,52.3,59.2c23.3,49.5,11.5,100.1,3.9,110.1c-0.8,1.1-5.2,6.4-8.2,14.7c-2,5.5-2.5,9.8-2.7,11.2
			c-1.8,12.3-15.6,24.2-26.2,32.8c0,0-52.4,42.6-76,40.2C225.7,311.3,221.1,310.8,221,309.6z"/>
	</g>
	<path class="st0" d="M56.9,294c2,0.9,3.9,0.2,5.8-1.2c1.6-1.2,3-1.2,4.9,0.2c1.9,1.5,4.6,0.9,7.1,0.6c1-0.1,1.1,4.2,3.9,4.9
		c1.5,0.4,2.7,1.8,4.7,1c2.2-0.9,3.9,0.7,5.1,2.3c1.5,2-0.8,2.9-1.7,4.2c-1.6,2.4-2.7,5-1.6,7.8c0.6,1.4-0.2,2-0.8,2.8
		c-0.7,0.9-1.2,2.1-0.6,3c3.4,4.9-0.9,5.6-3.8,6.8c-2.6,1.1-5.7,1.2-7.8,3.6c-2,2.3-5.5,0.4-6.2,0c-4.5-2.9-10.9-1.9-14.1-8
		c-1.8-3.4-5-6.3-4.7-10.5c0.3-4.1-1.8-9.2,3.8-11.8c1.2-0.6,2.1-2.3,2.3-3.9C53.5,293.9,54.9,293.5,56.9,294z"/>
</g>
</svg>
