<?xml version="1.0" encoding="utf-8"?>
<!-- Generator: Adobe Illustrator 24.1.1, SVG Export Plug-In . SVG Version: 6.00 Build 0)  -->
<svg version="1.1" id="Layer_1" xmlns="http://www.w3.org/2000/svg" xmlns:xlink="http://www.w3.org/1999/xlink" x="0px" y="0px"
	 viewBox="0 0 360 360" style="enable-background:new 0 0 360 360;" xml:space="preserve">
<style type="text/css">
	.st0{fill:#5E3819;}
</style>
<g>
	<path class="st0" d="M322.1,75.6c-1.6-2.7-2.6-5.3-1.9-8.6c2.8-13.3-0.6-17.5-14.2-17.7c-9.4-0.2-20.6-1.4-24.9-8.8
		c-9.4-16-26.8-15.7-40.3-22.9c-7-3.8-15.5-7.9-23.8-8.1c-30.1-0.8-60.1-5.3-89.8,7.1C99.1,28.4,73.2,41.5,52.9,65.5
		c-21.1,24.9-34.6,53.3-41.7,84.4c-4.4,19.5-0.5,39.6,4.5,59.1c0.6,2.5,1.6,5.6,4.7,6c3.6,0.4,4.1-3.1,5-5.4
		c2.8-7.3,5.6-14.5,3.8-22.6c-2-9-0.3-16.5,8.1-22.1c5.3-3.5,8.4-10.1,3-14.6c-7.2-5.9-5.2-11.2-2.7-17.8c2.7-6.9,5.8-13.6,9-20.3
		c15.2-31.7,39.3-51.8,72.7-63c11.3-3.8,20.7-12.8,33.6-15.6c11.8-2.5,24-3.5,35.9-6.7c15.7-4.2,33.2,1.6,47.6,9.1
		c13.8,7.3,26.2,17.6,40,25.4c3.6,2.1,5.5,5.3,5.1,9.3c-1.5,14,8,22,17.9,27.2c8.9,4.7,12.9,10.9,15,19.7c1.5,6.3,3.4,12.3,6.9,17.7
		c11.3,17.7,14.1,37.8,12.2,57.7c-0.9,10.3,0.4,22.6-8.4,31.4c-12.2,12.2-12.5,31.4-25.4,43.3c-12.8,11.8-22.2,27.4-38.6,35.4
		c-3.8,1.8-8,4.2-4.1,10.7c-2.9-0.9-4.4-0.9-5.4-1.7c-7.5-5.9-13.8-5.9-19.4,2.9c-3.1,4.9-8.6,5.2-13.7,4.5
		c-10.8-1.4-20.4,1-29.5,7.1c-7.1,4.8-27,3.1-33.2-2.2c-3.1-2.6-6.5-6.6-10.2-2.1c-3.6,4.4-2.7,10.3,1.9,13.5
		c7.8,5.3,16.4,9.7,26.6,7.6c16.2-3.4,32.7-5,49.1-7.6c19-3,36.6-12.7,51.8-22.4c16.5-10.5,34.2-22.5,45.9-40.3
		c8.2-12.6,20.7-22.5,18.7-39.8c-0.3-2.9,1.2-6.1,3.5-8.2c8.7-7.9,9.4-18.9,9.4-29C352.9,153.3,344.5,112.6,322.1,75.6z"/>
	<path class="st0" d="M123.9,320.2c-3.3-1.6-6.9-2.6-10.5-3.8c-4.7-1.6-8.8-4-9.9-9.1c-2.3-10.2-9.1-11.4-17.8-9.7
		c-2.4,0.5-5.1,2.9-6.9-1c-5-10.3-16.6-14.7-22-24.8c-2.1-3.9-5.1-3.8-8.2-1.1c3.7,13,11.9,23,22.4,30.6c8.3,6,18.3,9,25.2,17.8
		c5.7,7.4,14.9,10,24.2,11.6c3.2,0.5,6.2,1,7.7-2.6C129.8,324.1,127.1,321.7,123.9,320.2z"/>
	<path class="st0" d="M39.1,242.4c0-0.2-0.4-0.5-0.7-0.7c-6-3.5-7.2-9.5-7.8-15.6c-0.4-4-0.7-8-6.2-6.6c-4.2,1.1-4.7,4.9-3.2,8.2
		C27,240,32.8,252.1,39.1,264c1.8,3.4,4.8,6.6,9.4,6.8C49.4,260.1,39.5,252.8,39.1,242.4z"/>
	<path class="st0" d="M48.5,270.8C48.5,270.9,48.5,270.9,48.5,270.8C48.5,270.9,48.5,270.9,48.5,270.8L48.5,270.8
		C48.5,270.9,48.6,270.9,48.5,270.8C48.6,270.9,48.6,270.8,48.5,270.8C48.6,270.8,48.5,270.8,48.5,270.8z"/>
</g>
</svg>
