<svg version="1.2" xmlns="http://www.w3.org/2000/svg" viewBox="0 0 362 209" width="362" height="209">
	<style>
		.s0 { fill: #000000 } 
	</style>
	<path id="Color Fill 3" class="s0" d="m60.24 15.67c-0.69 0.29-3.11 4.19-5.37 8.68-2.27 4.48-5.75 10.61-7.75 13.63-1.99 3.01-6 8.41-8.91 12-2.91 3.58-5.28 7.19-5.26 8.02 0.01 0.83 0.59 2.07 1.28 2.77 0.7 0.69 2.06 1.26 3.02 1.25 0.98-0.01 4.66-3.65 8.36-8.27 3.63-4.54 8.24-10.92 10.25-14.19 3.16-5.16 3.68-5.62 3.94-3.5 0.17 1.34 1.44 6.94 2.84 12.44 1.39 5.5 4.49 15.4 6.88 22 2.4 6.6 5.55 14.7 7.01 18 1.45 3.3 5.19 9.82 8.31 14.48 3.11 4.67 8.36 11.13 11.66 14.37 3.3 3.23 9.6 8.28 14 11.2 4.4 2.93 14.08 8.21 21.5 11.73 7.43 3.52 17.1 7.8 21.5 9.51 4.4 1.71 11.82 4.25 16.5 5.64 4.68 1.39 13.9 3.63 20.5 4.97 6.6 1.33 18.13 3.26 25.62 4.27 12.12 1.63 13.81 1.66 15.3 0.33 0.92-0.82 1.67-2.18 1.67-3 0-0.82-0.58-2.01-1.3-2.63-0.71-0.63-7.14-1.91-14.29-2.84-7.15-0.94-18.4-2.78-25-4.09-6.6-1.3-15.82-3.52-20.5-4.92-4.68-1.4-11.65-3.74-15.5-5.19-3.85-1.45-11.95-4.95-18-7.78-6.05-2.83-14.83-7.46-19.5-10.28-4.68-2.83-10.97-7.34-14-10.03-3.03-2.69-7.71-7.78-10.4-11.32-2.7-3.53-7.05-10.92-9.68-16.42-2.63-5.5-6.64-15.4-8.9-22-2.26-6.6-4.94-15.37-5.96-19.5-1.01-4.12-2.12-9.19-2.45-11.25l-0.61-3.75c21.77 18.21 29.15 23.95 30.46 24.5 1.79 0.75 2.77 0.63 4-0.5 0.9-0.83 1.66-2.24 1.69-3.14 0.04-0.91-4.49-5.31-10.28-10-5.69-4.6-14.74-12.3-20.11-17.11-5.37-4.81-10.1-8.71-10.51-8.67-0.41 0.04-1.32 0.31-2.01 0.59z"/>
</svg>